<svg width="138" height="51" viewBox="0 0 138 51" fill="none" xmlns="http://www.w3.org/2000/svg">
<path d="M52.238 17.1818V22.8636H37.863V17.1818H52.238ZM40.6471 11.9545H48.488V31.983C48.488 32.286 48.5401 32.5417 48.6443 32.75C48.7485 32.9489 48.9094 33.1004 49.1272 33.2045C49.345 33.2992 49.6244 33.3466 49.9653 33.3466C50.2021 33.3466 50.4767 33.3182 50.7892 33.2614C51.1111 33.2045 51.3479 33.1572 51.4994 33.1193L52.6358 38.6307C52.2854 38.7348 51.7835 38.8627 51.1301 39.0142C50.4861 39.1657 49.7191 39.2652 48.8289 39.3125C47.0297 39.4072 45.5193 39.2225 44.2977 38.7585C43.0761 38.285 42.1575 37.5417 41.542 36.5284C40.9265 35.5152 40.6282 34.2462 40.6471 32.7216V11.9545ZM65.7146 39.3977C63.3472 39.3977 61.3207 38.929 59.6351 37.9915C57.9494 37.0445 56.6568 35.7282 55.7572 34.0426C54.8576 32.3475 54.4078 30.3826 54.4078 28.1477C54.4078 25.9129 54.8576 23.9527 55.7572 22.267C56.6568 20.572 57.9494 19.2557 59.6351 18.3182C61.3207 17.3712 63.3472 16.8977 65.7146 16.8977C68.082 16.8977 70.1085 17.3712 71.7941 18.3182C73.4798 19.2557 74.7724 20.572 75.672 22.267C76.5716 23.9527 77.0214 25.9129 77.0214 28.1477C77.0214 30.3826 76.5716 32.3475 75.672 34.0426C74.7724 35.7282 73.4798 37.0445 71.7941 37.9915C70.1085 38.929 68.082 39.3977 65.7146 39.3977ZM65.7714 33.6023C66.4343 33.6023 67.0072 33.3797 67.4902 32.9347C67.9731 32.4896 68.3472 31.8551 68.6123 31.0312C68.8775 30.2074 69.0101 29.2273 69.0101 28.0909C69.0101 26.9451 68.8775 25.965 68.6123 25.1506C68.3472 24.3267 67.9731 23.6922 67.4902 23.2472C67.0072 22.8021 66.4343 22.5795 65.7714 22.5795C65.0707 22.5795 64.4693 22.8021 63.9674 23.2472C63.4655 23.6922 63.082 24.3267 62.8169 25.1506C62.5517 25.965 62.4191 26.9451 62.4191 28.0909C62.4191 29.2273 62.5517 30.2074 62.8169 31.0312C63.082 31.8551 63.4655 32.4896 63.9674 32.9347C64.4693 33.3797 65.0707 33.6023 65.7714 33.6023Z" fill="#4EA8DE"/>
<path d="M88.101 39.2841C86.5479 39.2841 85.118 38.8769 83.8112 38.0625C82.5138 37.2481 81.4722 36.0123 80.6862 34.3551C79.9097 32.6979 79.5214 30.6098 79.5214 28.0909C79.5214 25.4583 79.9286 23.3182 80.743 21.6705C81.5669 20.0227 82.6275 18.8153 83.9248 18.0483C85.2316 17.2812 86.6048 16.8977 88.0441 16.8977C89.1237 16.8977 90.0707 17.0871 90.8851 17.4659C91.6994 17.8352 92.3813 18.3324 92.9305 18.9574C93.4798 19.5729 93.8964 20.25 94.1805 20.9886H94.2941V9.90909H102.135V39H94.351V35.4205H94.1805C93.8775 36.1591 93.4419 36.822 92.8737 37.4091C92.315 37.9867 91.6332 38.446 90.8282 38.7869C90.0328 39.1184 89.1237 39.2841 88.101 39.2841ZM90.9987 33.2614C91.7184 33.2614 92.3339 33.053 92.8453 32.6364C93.3661 32.2102 93.7638 31.6136 94.0385 30.8466C94.3226 30.0701 94.4646 29.1515 94.4646 28.0909C94.4646 27.0114 94.3226 26.0881 94.0385 25.321C93.7638 24.5445 93.3661 23.9527 92.8453 23.5455C92.3339 23.1288 91.7184 22.9205 90.9987 22.9205C90.279 22.9205 89.6635 23.1288 89.1521 23.5455C88.6502 23.9527 88.2619 24.5445 87.9873 25.321C87.7222 26.0881 87.5896 27.0114 87.5896 28.0909C87.5896 29.1705 87.7222 30.0985 87.9873 30.875C88.2619 31.642 88.6502 32.2339 89.1521 32.6506C89.6635 33.0578 90.279 33.2614 90.9987 33.2614ZM116.496 39.3977C114.128 39.3977 112.102 38.929 110.416 37.9915C108.731 37.0445 107.438 35.7282 106.538 34.0426C105.639 32.3475 105.189 30.3826 105.189 28.1477C105.189 25.9129 105.639 23.9527 106.538 22.267C107.438 20.572 108.731 19.2557 110.416 18.3182C112.102 17.3712 114.128 16.8977 116.496 16.8977C118.863 16.8977 120.89 17.3712 122.575 18.3182C124.261 19.2557 125.554 20.572 126.453 22.267C127.353 23.9527 127.803 25.9129 127.803 28.1477C127.803 30.3826 127.353 32.3475 126.453 34.0426C125.554 35.7282 124.261 37.0445 122.575 37.9915C120.89 38.929 118.863 39.3977 116.496 39.3977ZM116.553 33.6023C117.216 33.6023 117.788 33.3797 118.271 32.9347C118.754 32.4896 119.128 31.8551 119.394 31.0312C119.659 30.2074 119.791 29.2273 119.791 28.0909C119.791 26.9451 119.659 25.965 119.394 25.1506C119.128 24.3267 118.754 23.6922 118.271 23.2472C117.788 22.8021 117.216 22.5795 116.553 22.5795C115.852 22.5795 115.251 22.8021 114.749 23.2472C114.247 23.6922 113.863 24.3267 113.598 25.1506C113.333 25.965 113.2 26.9451 113.2 28.0909C113.2 29.2273 113.333 30.2074 113.598 31.0312C113.863 31.8551 114.247 32.4896 114.749 32.9347C115.251 33.3797 115.852 33.6023 116.553 33.6023Z" fill="#5E60CE"/>
<g clip-path="url(#clip0_43_109)">
<path d="M12.0712 13.7413C15.4945 17.9574 17.322 23.1565 17.2557 28.4915V29.765L18.3852 30.4317C19.8445 31.2887 20.9329 32.618 21.452 34.1773C20.9963 33.8518 20.5195 33.554 20.0245 33.2858L17.0126 31.6453L16.4714 34.9564C16.4245 35.249 16.3617 35.539 16.2831 35.8253H7.84353C7.71803 35.4508 7.61606 35.0762 7.52194 34.6867L6.83956 31.6902L4.06296 33.1885C3.59909 33.4401 3.15122 33.7178 2.72172 34.02C3.2509 32.4787 4.31656 31.1569 5.74147 30.2744L6.81603 29.6077V28.4241C6.83541 23.1108 8.68485 17.9512 12.079 13.7413H12.0712ZM12.079 10.625C11.903 10.6254 11.7331 10.6866 11.6006 10.7973L11.53 10.8572C7.00706 15.6885 4.49555 21.9358 4.47082 28.4166C2.55151 29.6059 1.13081 31.4015 0.456974 33.4897C-0.216863 35.5778 -0.100979 37.8258 0.784374 39.8406C1.71705 37.8733 3.27617 36.2374 5.23948 35.1661C5.43638 35.9807 5.69861 36.7796 6.02383 37.5558C6.06508 37.705 6.1565 37.8372 6.28404 37.9319C6.41158 38.0266 6.56818 38.0787 6.72975 38.0802H17.6165C17.8361 38.0802 18.0558 37.8779 18.1656 37.5633C18.483 36.8254 18.7043 36.053 18.8244 35.2635C20.7915 36.3303 22.3519 37.9676 23.2795 39.938C24.2183 37.9331 24.3637 35.671 23.6886 33.5714C23.0135 31.4719 21.5639 29.6776 19.6088 28.5214C19.6863 22.0024 17.1881 15.695 12.6124 10.8572C12.5442 10.7845 12.4608 10.7262 12.3676 10.6862C12.2744 10.6462 12.1734 10.6253 12.0712 10.625H12.079Z" fill="#4EA8DE"/>
<path d="M12.0712 27.7948C11.4687 27.7948 10.8798 27.6244 10.3785 27.3052C9.8773 26.986 9.48623 26.5322 9.25463 26.001C9.02302 25.4698 8.96124 24.8851 9.07707 24.3204C9.19291 23.7558 9.48117 23.2365 9.90552 22.8281C10.3299 22.4197 10.8713 22.1404 11.4616 22.0254C12.0519 21.9104 12.6647 21.965 13.2226 22.1821C13.7805 22.3992 14.2586 22.7692 14.5967 23.2454C14.9348 23.7217 15.1177 24.2829 15.1223 24.8582C15.1317 25.2311 15.064 25.6021 14.9233 25.95C14.7825 26.2979 14.5713 26.6159 14.3018 26.8858C14.0323 27.1557 13.7097 27.3723 13.3526 27.5231C12.9954 27.6739 12.6106 27.7561 12.2202 27.7648C12.1708 27.7724 12.1205 27.7724 12.0712 27.7648V27.7948Z" fill="#4EA8DE"/>
<path d="M16.3145 39.9455C16.1182 39.9395 15.9227 39.971 15.7394 40.0382C15.556 40.1053 15.3886 40.2067 15.2468 40.3365C15.1051 40.4663 14.9919 40.6218 14.914 40.794C14.836 40.9661 14.7948 41.1513 14.7928 41.3389V45.7587C14.7928 46.1441 14.9532 46.5137 15.2385 46.7863C15.5239 47.0588 15.9109 47.2119 16.3145 47.2119C16.718 47.2119 17.1051 47.0588 17.3904 46.7863C17.6758 46.5137 17.8361 46.1441 17.8361 45.7587V41.3988C17.8424 41.212 17.8097 41.0258 17.7398 40.8512C17.67 40.6766 17.5645 40.517 17.4294 40.3817C17.2944 40.2465 17.1325 40.1382 16.9532 40.0633C16.7739 39.9884 16.5808 39.9484 16.3851 39.9455H16.3145Z" fill="#5E60CE"/>
<path d="M7.84348 39.9455C7.64389 39.9354 7.44422 39.9638 7.25634 40.0289C7.06847 40.094 6.89623 40.1946 6.74987 40.3246C6.60351 40.4546 6.48603 40.6114 6.40441 40.7856C6.32279 40.9599 6.27871 41.148 6.27478 41.3389V45.7587C6.27478 46.1441 6.4351 46.5137 6.72046 46.7863C7.00582 47.0588 7.39286 47.212 7.79642 47.212C8.19998 47.212 8.58702 47.0588 8.87238 46.7863C9.15774 46.5137 9.31806 46.1441 9.31806 45.7587V41.3988C9.32433 41.212 9.2916 41.0258 9.22178 40.8512C9.15196 40.6766 9.04644 40.517 8.91138 40.3817C8.77632 40.2465 8.61442 40.1382 8.43512 40.0633C8.25581 39.9884 8.06269 39.9484 7.86701 39.9455H7.84348Z" fill="#5E60CE"/>
<path d="M11.9613 39.9455C11.7656 39.9415 11.571 39.9744 11.3886 40.0423C11.2062 40.1102 11.0396 40.2117 10.8983 40.3411C10.757 40.4705 10.6437 40.6252 10.5651 40.7964C10.4864 40.9676 10.4438 41.1519 10.4397 41.3389V47.4292C10.4397 47.8146 10.6 48.1843 10.8854 48.4568C11.1707 48.7294 11.5578 48.8825 11.9613 48.8825C12.3649 48.8825 12.7519 48.7294 13.0373 48.4568C13.3227 48.1843 13.483 47.8146 13.483 47.4292V41.4362C13.4892 41.2494 13.4565 41.0633 13.3867 40.8887C13.3169 40.7141 13.2114 40.5545 13.0763 40.4192C12.9412 40.2839 12.7793 40.1757 12.6 40.1008C12.4207 40.0259 12.2276 39.9858 12.0319 39.983L11.9613 39.9455Z" fill="#5E60CE"/>
</g>
<defs>
<clipPath id="clip0_43_109">
<rect width="24.0952" height="38.25" fill="white" transform="translate(0 10.625)"/>
</clipPath>
</defs>
</svg>
